<?xml version="1.0" encoding="utf-8"?>
<!-- Generator: Adobe Illustrator 16.0.2, SVG Export Plug-In . SVG Version: 6.00 Build 0)  -->
<!DOCTYPE svg PUBLIC "-//W3C//DTD SVG 1.1//EN" "http://www.w3.org/Graphics/SVG/1.1/DTD/svg11.dtd">
<svg version="1.1" id="Layer_1" xmlns="http://www.w3.org/2000/svg" xmlns:xlink="http://www.w3.org/1999/xlink" x="0px" y="0px"
	 width="198.43px" height="198.43px" viewBox="0 0 198.43 198.43" enable-background="new 0 0 198.43 198.43" xml:space="preserve">
<g>
	<path fill="#5CBB88" d="M132.233,51.477c2.3-6.816,8.313-11.902,15.639-12.875l4.926-11.531L135.85,10.126l-9.99,6.502
		c-3.796-2.138-7.811-3.802-11.979-4.969L111.412,0H87.021l-2.468,11.66c-4.169,1.167-8.187,2.832-11.979,4.969l-9.991-6.502
		L45.649,27.061l4.832,11.511c7.345,0.98,13.244,6.318,15.605,13.207l1.124-2.458c5.731-12.462,18.293-20.516,32.004-20.516
		c13.59,0,26.107,7.95,31.886,20.259L132.233,51.477z"/>
	<path fill="#5CBB88" d="M125.497,87.283l-13.483-3.374v-1.533c5.965-4.164,9.604-11.041,9.604-18.367v-5.594
		c0-12.433-9.742-22.838-21.716-23.2C93.767,35.02,88,37.273,83.616,41.53c-4.388,4.257-6.804,9.965-6.804,16.079v6.4
		c0,7.326,3.637,14.201,9.602,18.364v1.537l-13.48,3.374c-7.137,1.783-12.124,8.168-12.124,15.525v5.653l8.929-1.985
		c2.574-0.573,5.204-0.86,7.837-0.86c3.736,0,7.448,0.579,11.004,1.716l14.652,4.685c1.581,0,3.156,0.221,4.676,0.656l20.112,5.745
		h3.2l6.401-3.371v-12.238C137.621,95.452,132.634,89.066,125.497,87.283z"/>
	<path fill="#574BA0" d="M198.43,83.212h-7.191l-10.719,5.64c-1.207-0.666-2.462-1.23-3.815-1.569l-13.482-3.374v-1.533
		c5.965-4.164,9.604-11.041,9.604-18.367v-5.594c0-12.433-9.742-22.838-21.716-23.2c-6.126-0.18-11.902,2.058-16.287,6.315
		c-4.388,4.257-6.804,9.965-6.804,16.079v6.4c0,7.326,3.637,14.201,9.602,18.364v1.537l-12.803,3.205l0.679,0.168
		c2.964,0.739,5.524,2.305,7.54,4.373l10.984-2.745V78.776l-1.597-0.924c-4.938-2.855-8.005-8.162-8.005-13.843v-6.4
		c0-4.365,1.726-8.447,4.862-11.486c3.133-3.038,7.29-4.676,11.636-4.507c8.55,0.256,15.507,7.793,15.507,16.799v5.594
		c0,5.681-3.069,10.988-8.01,13.849l-1.601,0.925l0.013,10.128l15.989,3.994l-42.388,22.311h-1.961l-19.677-5.622
		c-1.547-0.439-3.144-0.619-4.747-0.68l-14.488-4.631c-6.603-2.115-13.749-2.432-20.508-0.935l-18.218,4.049l0.259-0.906
		l0.119-5.915L34.329,90.73l7.277-1.819V78.776l-1.597-0.924c-4.938-2.855-8.004-8.162-8.004-13.843v-6.4
		c0-4.365,1.725-8.447,4.862-11.486c3.133-3.038,7.299-4.676,11.636-4.507c8.55,0.256,15.507,7.793,15.507,16.799v5.594
		c0,5.681-3.069,10.988-8.011,13.849l-1.6,0.925l0.012,10.128l10.981,2.745c2.019-2.068,4.576-3.634,7.541-4.373l0.678-0.168
		L60.806,83.91v-1.533c5.965-4.164,9.604-11.041,9.604-18.367v-5.594c0-12.433-9.742-22.838-21.715-23.2
		c-6.129-0.18-11.902,2.058-16.287,6.315c-4.388,4.257-6.804,9.965-6.804,16.079v6.4c0,7.326,3.636,14.201,9.601,18.364v1.537
		l-8.795,2.199l-15.941-9.297H0v66.317l31.486,10.494h6.132l0.766-2.682l9.652,5.793c0.158,5.248,4.366,9.47,9.609,9.654
		c0.185,5.222,4.38,9.417,9.602,9.602c0.184,5.221,4.38,9.417,9.601,9.602c0.191,5.343,4.567,9.638,9.953,9.638
		c2,0,3.961-0.624,5.61-1.735l2.835,2.504c1.777,1.564,4.064,2.432,6.44,2.432h0.592c5.326,0,9.659-4.306,9.727-9.614
		c5.269-0.067,9.535-4.333,9.602-9.601c5.271-0.067,9.541-4.341,9.602-9.611c5.319-0.125,9.614-4.471,9.614-9.82
		c0-0.321-0.016-0.639-0.049-0.959l57.657-28.826V83.212z M6.401,83.212h2.333l23.018,13.425l-11.614,46.456l-13.737-4.581V83.212z
		 M32.523,147.222l-6.299-2.099l11.283-45.127l7.299,4.257v0.914l-12.014,42.055H32.523z M54.408,156.437
		c0-0.944,0.381-1.869,1.05-2.538l5.625-5.626c0.669-0.669,1.594-1.051,2.538-1.051c1.979,0,3.588,1.61,3.588,3.589
		c0,0.943-0.382,1.868-1.051,2.537l-5.625,5.626c-0.669,0.669-1.594,1.051-2.538,1.051
		C56.018,160.024,54.408,158.414,54.408,156.437z M64.01,166.037c0-0.943,0.381-1.869,1.05-2.538l5.626-5.626
		c0.668-0.668,1.594-1.05,2.538-1.05c1.978,0,3.588,1.609,3.588,3.588c0,0.944-0.381,1.869-1.05,2.538l-5.626,5.626
		c-0.669,0.669-1.594,1.05-2.538,1.05C65.619,169.625,64.01,168.016,64.01,166.037z M73.611,175.639c0-0.944,0.382-1.869,1.05-2.538
		l5.626-5.625c0.669-0.669,1.594-1.051,2.538-1.051c1.979,0,3.588,1.609,3.588,3.588c0,0.944-0.381,1.869-1.05,2.538l-5.626,5.626
		c-0.669,0.669-1.594,1.05-2.538,1.05C75.221,179.227,73.611,177.617,73.611,175.639z M86.8,188.828
		c-1.978,0-3.588-1.609-3.588-3.588c0-0.943,0.381-1.869,1.05-2.538l5.625-5.626c0.669-0.669,1.594-1.05,2.539-1.05
		c1.978,0,3.587,1.609,3.587,3.588c0,0.944-0.381,1.869-1.05,2.538l-5.625,5.626C88.67,188.447,87.744,188.828,86.8,188.828z
		 M102.277,192.028h-0.592c-0.815,0-1.598-0.297-2.205-0.836l-2.395-2.111l2.403-2.403c0.858-0.857,1.524-1.878,2.016-2.974
		l2.91,2.422c0.761,0.635,1.2,1.569,1.2,2.564C105.616,190.531,104.119,192.028,102.277,192.028z M130.979,163.225h-0.554
		c-0.803,0-1.588-0.284-2.202-0.801l-17.355-14.463l-4.101,4.92l16.854,14.042c0.758,0.635,1.197,1.569,1.197,2.565
		c0,1.841-1.497,3.338-3.338,3.338h-0.698c-0.777,0-1.536-0.275-2.135-0.775l-17.384-14.485l-4.101,4.92l16.854,14.044
		c0.761,0.63,1.2,1.564,1.2,2.56c0,1.842-1.497,3.339-3.339,3.339c-1.229,0-2.425-0.437-3.367-1.22l-7.144-5.954
		c-1.574-3.216-4.807-5.458-8.593-5.593c-0.184-5.221-4.381-9.417-9.602-9.602c-0.185-5.221-4.38-9.417-9.601-9.602
		c-0.188-5.343-4.563-9.637-9.95-9.637c-2.63,0-5.204,1.065-7.063,2.925l-5.626,5.626c-0.336,0.336-0.614,0.718-0.897,1.096
		l-9.831-5.899l8.619-30.164l21.606-4.804c5.668-1.268,11.644-0.992,17.171,0.777l4.714,1.508l-15.983,7.991
		c-3.652,1.83-5.921,5.504-5.921,9.589v0.634c0,5.911,4.811,10.722,10.723,10.722c1.942,0,3.854-0.528,5.515-1.53l11.917-7.146
		c2.394-1.435,5.607-1.12,7.674,0.739l27.041,24.337c0.725,0.656,1.14,1.587,1.14,2.563
		C134.42,161.682,132.878,163.225,130.979,163.225z M192.029,126.041l-53.92,26.962c-0.175-0.187-0.357-0.363-0.55-0.535
		l-27.037-24.336c-2.369-2.138-5.432-3.313-8.623-3.313c-2.333,0-4.624,0.635-6.63,1.838l-11.922,7.149
		c-0.669,0.403-1.434,0.614-2.214,0.614c-2.385,0-4.321-1.937-4.321-4.32v-0.634c0-1.648,0.916-3.127,2.388-3.862l17.853-8.927
		c3.055-1.53,6.682-1.872,9.974-0.925l20.113,5.744l4.871,0.122l60.019-31.589V126.041z"/>
</g>
</svg>
